#Comment line ignore any data following # character 
#Hierarchical Translation and Rotation (.htr) file 
[Header]	
#Header keywords are followed by a single value 
FileType HTR		#Single word string
DataType HTRS		#Translation followed by rotation and scale data
FileVersion 1		#integer
NumSegments 84		#integer
NumFrames 2		#integer
DataFrameRate 30		#integer, data frame rate in this file
EulerRotationOrder ZYX
CalibrationUnits mm
RotationUnits Degrees
GlobalAxisofGravity Y
BoneLengthAxis Y
ScaleFactor 1.00
[SegmentNames&Hierarchy]
#CHILD	PARENT
MASTER GLOBAL
root MASTER
chest root
L_mid_tent01 root
R_mid_tent01 root
spine01 root
Bip01_Neck chest
L_humerus chest
R_humerus chest
weapon_bone chest
Bip01_Head Bip01_Neck
eye_left_bone Bip01_Head
eye_right_bone Bip01_Head
L_forearm L_humerus
L_front_hand L_forearm
L_weapon_bone L_forearm
L_front_hand01_01 L_front_hand
L_front_hand02_01 L_front_hand
L_front_hand03_01 L_front_hand
L_front_hand01_02 L_front_hand01_01
L_front_hand02_02 L_front_hand02_01
L_front_hand03_02 L_front_hand03_01
R_forearm R_humerus
R_front_hand R_forearm
R_weapon_bone R_forearm
R_front_hand01_01 R_front_hand
R_front_hand02_01 R_front_hand
R_front_hand03_01 R_front_hand
R_front_hand01_02 R_front_hand01_01
R_front_hand02_02 R_front_hand02_01
R_front_hand03_02 R_front_hand03_01
null_rope01_connect L_mid_tent01
Rope1_Seg01 null_rope01_connect
Rope1_Seg02 Rope1_Seg01
Rope1_Seg03 Rope1_Seg02
Rope1_Seg04 Rope1_Seg03
Rope1_Seg05 Rope1_Seg04
Rope1_Seg06 Rope1_Seg05
Rope1_Seg07 Rope1_Seg06
Rope1_Seg09 Rope1_Seg07
L_mid_hand01 Rope1_Seg09
L_mid_hand02 Rope1_Seg09
L_mid_hand03 Rope1_Seg09
null_rope02_connect R_mid_tent01
Rope2_Seg01 null_rope02_connect
Rope2_Seg02 Rope2_Seg01
Rope2_Seg03 Rope2_Seg02
Rope2_Seg04 Rope2_Seg03
Rope2_Seg05 Rope2_Seg04
Rope2_Seg06 Rope2_Seg05
Rope2_Seg07 Rope2_Seg06
Rope2_Seg09 Rope2_Seg07
R_mid_hand01 Rope2_Seg09
R_mid_hand02 Rope2_Seg09
R_mid_hand03 Rope2_Seg09
spine02 spine01
spine03 spine02
pelvis spine03
null_rope03_connect pelvis
null_rope04_connect pelvis
Rope3_Seg01 null_rope03_connect
Rope3_Seg02 Rope3_Seg01
Rope3_Seg03 Rope3_Seg02
Rope3_Seg04 Rope3_Seg03
Rope3_Seg05 Rope3_Seg04
Rope3_Seg06 Rope3_Seg05
Rope3_Seg07 Rope3_Seg06
Rope3_Seg08 Rope3_Seg07
Rope3_Seg09 Rope3_Seg08
R_rear_hand01 Rope3_Seg09
R_rear_hand02 Rope3_Seg09
R_rear_hand03 Rope3_Seg09
Rope4_Seg01 null_rope04_connect
Rope4_Seg02 Rope4_Seg01
Rope4_Seg03 Rope4_Seg02
Rope4_Seg04 Rope4_Seg03
Rope4_Seg05 Rope4_Seg04
Rope4_Seg06 Rope4_Seg05
Rope4_Seg07 Rope4_Seg06
Rope4_Seg08 Rope4_Seg07
Rope4_Seg09 Rope4_Seg08
L_rear_hand01 Rope4_Seg09
L_rear_hand02 Rope4_Seg09
L_rear_hand03 Rope4_Seg09
[BasePosition]
#SegmentName Tx, Ty, Tz, Rx, Ry, Rz, BoneLength
MASTER 0.000000 0.000000 0.000000 -90.000000 0.000000 0.000000 10.000000 
root 0.000000 0.000000 0.000000 0.000000 0.000000 0.000000 10.000000 
chest 0.000000 0.000000 0.000000 0.000000 0.000000 0.000000 10.000000 
L_mid_tent01 0.000000 0.000000 0.000000 0.000000 0.000000 0.000000 10.000000 
R_mid_tent01 0.000000 0.000000 0.000000 0.000000 0.000000 0.000000 10.000000 
spine01 0.000000 0.000000 0.000000 0.000000 0.000000 0.000000 10.000000 
Bip01_Neck 0.000000 0.000000 0.000000 0.000000 0.000000 0.000000 10.000000 
L_humerus 0.000000 0.000000 0.000000 0.000000 0.000000 0.000000 10.000000 
R_humerus 0.000000 0.000000 0.000000 0.000000 0.000000 0.000000 10.000000 
weapon_bone 0.000000 0.000000 0.000000 0.000000 0.000000 0.000000 10.000000 
Bip01_Head 0.000000 0.000000 0.000000 0.000000 0.000000 0.000000 10.000000 
eye_left_bone 0.000000 0.000000 0.000000 0.000000 0.000000 0.000000 10.000000 
eye_right_bone 0.000000 0.000000 0.000000 0.000000 0.000000 0.000000 10.000000 
L_forearm 0.000000 0.000000 0.000000 0.000000 0.000000 0.000000 10.000000 
L_front_hand 0.000000 0.000000 0.000000 0.000000 0.000000 0.000000 10.000000 
L_weapon_bone 0.000000 0.000000 0.000000 0.000000 0.000000 0.000000 10.000000 
L_front_hand01_01 0.000000 0.000000 0.000000 0.000000 0.000000 0.000000 10.000000 
L_front_hand02_01 0.000000 0.000000 0.000000 0.000000 0.000000 0.000000 10.000000 
L_front_hand03_01 0.000000 0.000000 0.000000 0.000000 0.000000 0.000000 10.000000 
L_front_hand01_02 0.000000 0.000000 0.000000 0.000000 0.000000 0.000000 10.000000 
L_front_hand02_02 0.000000 0.000000 0.000000 0.000000 0.000000 0.000000 10.000000 
L_front_hand03_02 0.000000 0.000000 0.000000 0.000000 0.000000 0.000000 10.000000 
R_forearm 0.000000 0.000000 0.000000 0.000000 0.000000 0.000000 10.000000 
R_front_hand 0.000000 0.000000 0.000000 0.000000 0.000000 0.000000 10.000000 
R_weapon_bone 0.000000 0.000000 0.000000 0.000000 0.000000 0.000000 10.000000 
R_front_hand01_01 0.000000 0.000000 0.000000 0.000000 0.000000 0.000000 10.000000 
R_front_hand02_01 0.000000 0.000000 0.000000 0.000000 0.000000 0.000000 10.000000 
R_front_hand03_01 0.000000 0.000000 0.000000 0.000000 0.000000 0.000000 10.000000 
R_front_hand01_02 0.000000 0.000000 0.000000 0.000000 0.000000 0.000000 10.000000 
R_front_hand02_02 0.000000 0.000000 0.000000 0.000000 0.000000 0.000000 10.000000 
R_front_hand03_02 0.000000 0.000000 0.000000 0.000000 0.000000 0.000000 10.000000 
null_rope01_connect 0.000000 0.000000 0.000000 0.000000 0.000000 0.000000 10.000000 
Rope1_Seg01 0.000000 0.000000 0.000000 0.000000 0.000000 0.000000 10.000000 
Rope1_Seg02 0.000000 0.000000 0.000000 0.000000 0.000000 0.000000 10.000000 
Rope1_Seg03 0.000000 0.000000 0.000000 0.000000 0.000000 0.000000 10.000000 
Rope1_Seg04 0.000000 0.000000 0.000000 0.000000 0.000000 0.000000 10.000000 
Rope1_Seg05 0.000000 0.000000 0.000000 0.000000 0.000000 0.000000 10.000000 
Rope1_Seg06 0.000000 0.000000 0.000000 0.000000 0.000000 0.000000 10.000000 
Rope1_Seg07 0.000000 0.000000 0.000000 0.000000 0.000000 0.000000 10.000000 
Rope1_Seg09 0.000000 0.000000 0.000000 0.000000 0.000000 0.000000 10.000000 
L_mid_hand01 0.000000 0.000000 0.000000 0.000000 0.000000 0.000000 10.000000 
L_mid_hand02 0.000000 0.000000 0.000000 0.000000 0.000000 0.000000 10.000000 
L_mid_hand03 0.000000 0.000000 0.000000 0.000000 0.000000 0.000000 10.000000 
null_rope02_connect 0.000000 0.000000 0.000000 0.000000 0.000000 0.000000 10.000000 
Rope2_Seg01 0.000000 0.000000 0.000000 0.000000 0.000000 0.000000 10.000000 
Rope2_Seg02 0.000000 0.000000 0.000000 0.000000 0.000000 0.000000 10.000000 
Rope2_Seg03 0.000000 0.000000 0.000000 0.000000 0.000000 0.000000 10.000000 
Rope2_Seg04 0.000000 0.000000 0.000000 0.000000 0.000000 0.000000 10.000000 
Rope2_Seg05 0.000000 0.000000 0.000000 0.000000 0.000000 0.000000 10.000000 
Rope2_Seg06 0.000000 0.000000 0.000000 0.000000 0.000000 0.000000 10.000000 
Rope2_Seg07 0.000000 0.000000 0.000000 0.000000 0.000000 0.000000 10.000000 
Rope2_Seg09 0.000000 0.000000 0.000000 0.000000 0.000000 0.000000 10.000000 
R_mid_hand01 0.000000 0.000000 0.000000 0.000000 0.000000 0.000000 10.000000 
R_mid_hand02 0.000000 0.000000 0.000000 0.000000 0.000000 0.000000 10.000000 
R_mid_hand03 0.000000 0.000000 0.000000 0.000000 0.000000 0.000000 10.000000 
spine02 0.000000 0.000000 0.000000 0.000000 0.000000 0.000000 10.000000 
spine03 0.000000 0.000000 0.000000 0.000000 0.000000 0.000000 10.000000 
pelvis 0.000000 0.000000 0.000000 0.000000 0.000000 0.000000 10.000000 
null_rope03_connect 0.000000 0.000000 0.000000 0.000000 0.000000 0.000000 10.000000 
null_rope04_connect 0.000000 0.000000 0.000000 0.000000 0.000000 0.000000 10.000000 
Rope3_Seg01 0.000000 0.000000 0.000000 0.000000 0.000000 0.000000 10.000000 
Rope3_Seg02 0.000000 0.000000 0.000000 0.000000 0.000000 0.000000 10.000000 
Rope3_Seg03 0.000000 0.000000 0.000000 0.000000 0.000000 0.000000 10.000000 
Rope3_Seg04 0.000000 0.000000 0.000000 0.000000 0.000000 0.000000 10.000000 
Rope3_Seg05 0.000000 0.000000 0.000000 0.000000 0.000000 0.000000 10.000000 
Rope3_Seg06 0.000000 0.000000 0.000000 0.000000 0.000000 0.000000 10.000000 
Rope3_Seg07 0.000000 0.000000 0.000000 0.000000 0.000000 0.000000 10.000000 
Rope3_Seg08 0.000000 0.000000 0.000000 0.000000 0.000000 0.000000 10.000000 
Rope3_Seg09 0.000000 0.000000 0.000000 0.000000 0.000000 0.000000 10.000000 
R_rear_hand01 0.000000 0.000000 0.000000 0.000000 0.000000 0.000000 10.000000 
R_rear_hand02 0.000000 0.000000 0.000000 0.000000 0.000000 0.000000 10.000000 
R_rear_hand03 0.000000 0.000000 0.000000 0.000000 0.000000 0.000000 10.000000 
Rope4_Seg01 0.000000 0.000000 0.000000 0.000000 0.000000 0.000000 10.000000 
Rope4_Seg02 0.000000 0.000000 0.000000 0.000000 0.000000 0.000000 10.000000 
Rope4_Seg03 0.000000 0.000000 0.000000 0.000000 0.000000 0.000000 10.000000 
Rope4_Seg04 0.000000 0.000000 0.000000 0.000000 0.000000 0.000000 10.000000 
Rope4_Seg05 0.000000 0.000000 0.000000 0.000000 0.000000 0.000000 10.000000 
Rope4_Seg06 0.000000 0.000000 0.000000 0.000000 0.000000 0.000000 10.000000 
Rope4_Seg07 0.000000 0.000000 0.000000 0.000000 0.000000 0.000000 10.000000 
Rope4_Seg08 0.000000 0.000000 0.000000 0.000000 0.000000 0.000000 10.000000 
Rope4_Seg09 0.000000 0.000000 0.000000 0.000000 0.000000 0.000000 10.000000 
L_rear_hand01 0.000000 0.000000 0.000000 0.000000 0.000000 0.000000 10.000000 
L_rear_hand02 0.000000 0.000000 0.000000 0.000000 0.000000 0.000000 10.000000 
L_rear_hand03 0.000000 0.000000 0.000000 0.000000 0.000000 0.000000 10.000000 
#Beginning of Data. Separated by tabs
#Fr	Tx	Ty	Tz	Rx	Ry	Rz	SF
[MASTER]
5 0.000000 0.000000 0.000000 0.001660 0.001660 0.001660 0.000000
6 0.000000 0.000000 0.000000 0.001660 0.001660 0.001660 0.000000
[root]
5 -10.257244 -111.802155 1707.286377 -98.025566 -27.124195 -61.598614 1710.973877
6 -2.897137 -126.298859 1790.145020 -101.598892 -27.237072 -59.181187 1794.597168
[chest]
5 -84.512650 -34.090519 0.000000 -2.575786 3.792606 -179.374207 91.129311
6 -84.512650 -34.090519 0.000000 -2.614408 4.011291 179.352371 91.129311
[L_mid_tent01]
5 27.300404 22.176130 -249.918777 -8.753190 42.134155 65.547096 252.381638
6 27.300364 22.176226 -249.918777 -14.834438 45.530643 58.553982 252.381638
[R_mid_tent01]
5 23.228794 24.509907 226.238495 149.953018 -59.706230 99.761353 228.744751
6 23.228794 24.509907 226.238495 148.178802 -62.492176 103.417221 228.744751
[spine01]
5 -0.361383 -0.195265 0.000000 0.001943 0.001317 21.749664 0.410763
6 -0.361383 -0.195265 0.000000 0.001942 0.001318 21.674116 0.410763
[Bip01_Neck]
5 165.484543 71.581718 0.000119 175.896118 1.177290 24.871183 180.302734
6 165.484543 71.581718 0.000119 175.896118 1.177290 24.871183 180.302734
[L_humerus]
5 -13.983130 -135.272980 -120.471481 150.747543 42.980156 -133.851318 181.680161
6 -13.983130 -135.272980 -120.471481 148.056503 49.878174 -131.561661 181.680161
[R_humerus]
5 -13.983309 -135.273102 125.287651 174.352005 -45.511192 -81.477577 184.909012
6 -13.983309 -135.273102 125.287651 163.058075 -48.514301 -60.887463 184.909012
[weapon_bone]
5 235.964890 -300.705902 0.000000 0.000000 -89.951546 -128.212341 382.234833
6 235.964890 -300.705902 0.000000 0.000000 -89.951546 -128.212341 382.234833
[Bip01_Head]
5 212.456512 139.295502 7.686109 -13.205698 1.078251 -59.413235 254.165466
6 214.656143 136.408386 7.350196 -19.480436 0.918454 -57.996468 254.437683
[eye_left_bone]
5 32.992447 156.673843 -75.075089 -153.805481 -88.667931 54.666615 176.837402
6 33.543037 157.025742 -75.188744 -152.042419 -88.564140 52.900108 177.300781
[eye_right_bone]
5 34.774982 158.619354 53.977814 26.248995 -88.672195 54.614536 171.122772
6 35.521339 158.970428 53.856392 28.014254 -88.568512 52.846157 171.563034
[L_forearm]
5 322.776093 0.000000 -0.000119 0.000338 -0.002323 -106.540215 322.776093
6 322.776093 0.000000 -0.000119 0.000317 -0.002326 -105.518608 322.776093
[L_front_hand]
5 241.149185 -0.042021 -3.300071 -178.744904 -1.891253 -25.080212 241.171753
6 241.149185 -0.042021 -3.300071 -178.767899 -1.906625 -24.356365 241.171753
[L_weapon_bone]
5 156.183838 0.000000 0.000000 0.001527 0.001782 -8.805378 156.183838
6 156.183838 0.000000 0.000000 0.001458 0.001839 -13.192889 156.183838
[L_front_hand01_01]
5 86.095154 20.947098 -0.655860 -0.359460 -0.482593 74.618774 88.609184
6 86.095154 20.947098 -0.655860 -0.357810 -0.483818 74.227531 88.609184
[L_front_hand02_01]
5 86.935165 -11.437475 24.513514 153.221573 -59.543880 -59.999054 91.046425
6 86.935165 -11.437475 24.513514 152.633667 -59.365772 -59.317463 91.046425
[L_front_hand03_01]
5 86.637497 -14.123976 -20.424902 -152.825302 57.775230 -61.415504 90.126129
6 86.637497 -14.123976 -20.424902 -152.275314 57.596882 -60.768417 90.126129
[L_front_hand01_02]
5 71.020905 -0.000179 0.000030 0.000334 -0.002323 -106.379684 71.020905
6 71.020905 -0.000179 0.000030 0.000334 -0.002323 -106.379684 71.020905
[L_front_hand02_02]
5 71.020927 -0.000119 0.000060 0.000334 -0.002323 -106.379684 71.020927
6 71.020927 -0.000119 0.000060 0.000334 -0.002323 -106.379684 71.020927
[L_front_hand03_02]
5 71.020905 -0.000060 0.000060 0.000334 -0.002323 -106.379684 71.020905
6 71.020905 -0.000060 0.000060 0.000334 -0.002323 -106.379684 71.020905
[R_forearm]
5 322.776428 -0.000060 0.000030 0.208262 -0.034821 -81.166656 322.776428
6 322.776428 -0.000060 0.000030 0.202856 -0.062772 -73.287338 322.776428
[R_front_hand]
5 238.847015 -0.006795 2.210259 -2.635298 -10.645461 -26.312506 238.857239
6 238.847015 -0.006795 2.210259 -2.635298 -10.645461 -26.312506 238.857239
[R_weapon_bone]
5 155.664093 0.002503 -0.000030 0.003487 0.001180 -90.988930 155.664078
6 155.664093 0.002503 -0.000030 0.003487 0.001180 -90.988930 155.664078
[R_front_hand01_01]
5 87.624611 14.231146 22.918642 -137.089981 -51.842838 40.680962 91.683487
6 87.624611 14.231146 22.918642 -133.999344 -49.348488 36.684383 91.683487
[R_front_hand02_01]
5 89.356956 14.367283 -19.491137 137.994446 50.301647 43.416592 92.579636
6 89.356956 14.367283 -19.491137 135.015518 47.853233 39.477383 92.579636
[R_front_hand03_01]
5 87.286232 -22.307278 -0.143439 0.051657 -0.450829 -61.546795 90.091743
6 87.286232 -22.307278 -0.143439 0.026605 -0.452683 -57.992813 90.091743
[R_front_hand01_02]
5 71.020905 0.000060 0.000119 0.002341 -0.000174 98.496246 71.020905
6 71.020905 0.000060 0.000119 0.002342 -0.000164 98.026733 71.020905
[R_front_hand02_02]
5 71.020844 -0.000030 -0.000119 0.002341 -0.000174 98.494087 71.020836
6 71.020844 -0.000030 -0.000119 0.002342 -0.000164 98.025658 71.020836
[R_front_hand03_02]
5 71.020905 0.000000 0.000030 0.002341 -0.000174 98.496246 71.020905
6 71.020905 0.000000 0.000030 0.002342 -0.000164 98.026733 71.020905
[null_rope01_connect]
5 328.732483 0.000000 -0.000238 -169.775787 -51.206333 -131.195435 328.732483
6 328.732483 0.000000 -0.000238 -165.748688 -45.004856 -127.816803 328.732483
[Rope1_Seg01]
5 -0.000038 -0.000114 0.000097 80.487930 -22.959982 -148.754227 0.000155
6 -0.000038 -0.000114 0.000098 79.551872 -27.930983 -149.560852 0.000155
[Rope1_Seg02]
5 139.999863 -0.000179 0.000000 5.968331 -5.427638 -5.955698 139.999863
6 139.999863 -0.000179 0.000000 4.516032 -5.178880 -5.119126 139.999863
[Rope1_Seg03]
5 139.999924 0.000060 -0.000060 14.174642 -13.625233 -12.516449 139.999924
6 139.999924 0.000060 -0.000060 10.988372 -12.993546 -11.226687 139.999924
[Rope1_Seg04]
5 139.999924 -0.000060 -0.000119 30.439650 -40.429249 -27.563211 139.999924
6 139.999924 -0.000060 -0.000119 29.075497 -43.140247 -30.269743 139.999924
[Rope1_Seg05]
5 139.999832 0.000119 -0.000060 3.563096 -23.000492 -5.011362 139.999832
6 139.999832 0.000119 -0.000060 3.824888 -22.005068 -10.553923 139.999832
[Rope1_Seg06]
5 139.999954 0.000119 -0.000060 0.045278 -4.054399 -1.232213 139.999954
6 139.999954 0.000119 -0.000060 0.135828 -3.354451 -3.228717 139.999954
[Rope1_Seg07]
5 139.999985 0.000060 0.000000 -0.067906 -3.466234 -0.644469 139.999985
6 139.999985 0.000060 0.000000 0.053457 -2.921111 -1.449299 139.999985
[Rope1_Seg09]
5 121.602913 0.000119 -0.000089 -90.278183 -1.360160 0.847935 121.602913
6 121.602913 0.000119 -0.000089 -90.779694 -1.360554 0.848654 121.602913
[L_mid_hand01]
5 103.859421 1.038730 8.195221 104.901360 -15.416424 -4.579115 104.187431
6 103.859421 1.038730 8.195221 104.564636 -9.635468 -3.022029 104.187431
[L_mid_hand02]
5 105.572853 -4.139662 -10.864139 -137.605331 15.125652 -15.357132 106.211075
6 105.572853 -4.139662 -10.864139 -136.586548 11.053603 -10.862152 106.211075
[L_mid_hand03]
5 104.641464 17.579376 -3.913581 -18.149921 4.858173 18.388926 106.179977
6 104.641464 17.579376 -3.913581 -18.538750 2.975616 12.703538 106.179977
[null_rope02_connect]
5 328.732849 0.000179 -0.000119 -120.616768 9.370094 37.023575 328.732849
6 328.732849 0.000179 -0.000119 -121.725761 8.389973 39.378788 328.732849
[Rope2_Seg01]
5 -0.000056 0.000100 0.000000 -47.602230 10.662951 45.167812 0.000114
6 -0.000051 0.000100 0.000000 -48.407284 15.158305 43.644604 0.000112
[Rope2_Seg02]
5 139.999741 -0.000060 -0.000119 -0.563986 -2.878063 18.755566 139.999756
6 139.999741 -0.000060 -0.000119 -1.351896 -4.566802 18.203657 139.999756
[Rope2_Seg03]
5 140.000107 0.000030 0.000000 2.298916 -2.282038 18.055382 140.000107
6 140.000107 0.000030 0.000000 1.412123 -4.689870 16.370375 140.000107
[Rope2_Seg04]
5 139.999802 0.000000 -0.000060 5.705854 -2.593637 19.991039 139.999802
6 139.999802 0.000000 -0.000060 5.281061 -3.938637 19.167418 139.999802
[Rope2_Seg05]
5 139.999985 -0.000060 0.000119 12.479481 -1.884539 24.961149 139.999985
6 139.999985 -0.000060 0.000119 12.455702 -1.521308 23.812958 139.999985
[Rope2_Seg06]
5 139.999893 -0.000030 -0.000119 8.751560 1.922756 12.405602 139.999893
6 139.999893 -0.000030 -0.000119 8.437332 1.781119 11.793633 139.999893
[Rope2_Seg07]
5 139.999893 0.000060 -0.000060 4.878438 1.999506 6.283471 139.999893
6 139.999893 0.000060 -0.000060 4.832925 1.848728 6.152126 139.999893
[Rope2_Seg09]
5 121.338966 0.000089 -0.000060 33.793236 -1.359788 -0.847141 121.338966
6 121.338966 0.000089 -0.000060 33.793236 -1.359788 -0.847141 121.338966
[R_mid_hand01]
5 104.680779 11.144459 -10.335981 -46.227741 12.210361 14.185655 105.778534
6 104.680779 11.144459 -10.335981 -46.983112 7.642263 9.805663 105.778534
[R_mid_hand02]
5 104.070427 2.443552 8.231699 75.154396 -14.505710 4.333760 104.424065
6 104.070427 2.443552 8.231699 75.479454 -8.429625 2.711335 104.424065
[R_mid_hand03]
5 106.028137 -11.221827 -5.996406 -165.269775 5.820220 -18.388170 106.788818
6 106.028137 -11.221827 -5.996406 -164.740158 4.196070 -12.295324 106.788818
[spine02]
5 129.756927 0.001550 0.000119 0.431999 -4.037074 -13.978946 129.756927
6 129.756927 0.001550 0.000119 0.442194 -4.035897 -14.128886 129.756927
[spine03]
5 78.614998 0.079849 -4.899065 2.036012 3.759360 18.584476 78.767532
6 78.614975 0.079898 -4.899064 2.063663 3.744520 19.006464 78.767517
[pelvis]
5 169.435242 0.051022 0.000000 -0.061444 -0.179894 14.711053 169.435257
6 169.435242 0.051022 0.000000 -0.061601 -0.179840 14.810801 169.435257
[null_rope03_connect]
5 -1.257226 -2.466202 137.391083 103.902893 -64.201981 -26.304453 137.418976
6 -1.257226 -2.466202 137.391083 110.252060 -62.646511 -31.852901 137.418976
[null_rope04_connect]
5 -1.259640 -2.480268 -137.844437 103.902893 -64.201981 -26.304453 137.872513
6 -1.259640 -2.480268 -137.844437 110.252060 -62.646511 -31.852901 137.872513
[Rope3_Seg01]
5 0.000000 0.000000 0.000000 -130.615356 -1.353595 -67.695778 0.000000
6 0.000000 0.000000 0.000000 -128.220184 15.075696 -66.649750 0.000000
[Rope3_Seg02]
5 139.999924 -0.000119 0.000060 20.334009 -32.267757 -33.490166 139.999924
6 139.999924 -0.000119 0.000060 14.109150 -32.496014 -18.734873 139.999924
[Rope3_Seg03]
5 139.999924 -0.000119 0.000119 37.431713 -21.840719 -13.349784 139.999924
6 139.999924 -0.000119 0.000119 26.833668 -26.999786 -11.895990 139.999924
[Rope3_Seg04]
5 139.999924 0.000119 0.000000 77.799988 -26.974371 1.268503 139.999924
6 139.999924 0.000119 0.000000 44.597656 -27.250525 5.716412 139.999924
[Rope3_Seg05]
5 139.999924 -0.000238 0.000060 20.275234 -4.390565 25.969721 139.999924
6 139.999924 -0.000238 0.000060 21.678150 -12.834452 23.590403 139.999924
[Rope3_Seg06]
5 139.999893 -0.000119 -0.000060 3.345248 1.917109 9.361126 139.999893
6 139.999893 -0.000119 -0.000060 4.686645 -1.080351 9.666214 139.999893
[Rope3_Seg07]
5 139.999771 0.000060 -0.000119 1.646932 1.358765 5.132666 139.999771
6 139.999771 0.000060 -0.000119 2.211581 -0.181310 5.114659 139.999771
[Rope3_Seg08]
5 139.999985 -0.000060 0.000000 1.051677 0.841272 2.853640 139.999985
6 139.999985 -0.000060 0.000000 1.342705 0.012773 2.851014 139.999985
[Rope3_Seg09]
5 90.185997 -0.000179 -0.000060 83.095482 -1.361493 -0.847511 90.185997
6 90.185997 -0.000179 -0.000060 81.271141 -1.362468 -0.847718 90.185997
[R_rear_hand01]
5 103.366196 -6.073594 -10.757982 -157.559235 10.513236 -13.241589 104.101845
6 103.366196 -6.073594 -10.757982 -156.704285 8.345716 -8.027033 104.101845
[R_rear_hand02]
5 100.509819 12.039542 -7.992327 -37.862160 8.939234 14.323664 101.543350
6 100.509819 12.039542 -7.992327 -38.418526 5.491729 9.898495 101.543350
[R_rear_hand03]
5 101.539970 5.215704 5.435467 84.149254 -13.552155 5.237628 101.819031
6 101.539970 5.215704 5.435467 84.256439 -8.001242 4.666574 101.819031
[Rope4_Seg01]
5 0.000000 0.000000 0.000000 43.292736 -25.211107 -90.784157 0.000000
6 0.000000 0.000000 0.000000 41.999767 -27.947319 -88.371826 0.000000
[Rope4_Seg02]
5 139.999985 0.000060 0.000119 0.458501 -9.066771 -5.444452 139.999985
6 139.999985 0.000060 0.000119 0.354206 -7.513024 -4.686814 139.999985
[Rope4_Seg03]
5 139.999924 0.000000 -0.000238 1.022791 -15.665811 -9.585468 139.999924
6 139.999924 0.000000 -0.000238 0.770841 -13.442079 -8.503000 139.999924
[Rope4_Seg04]
5 139.999985 0.000000 0.000119 0.401909 -21.596760 -14.660040 139.999985
6 139.999985 0.000000 0.000119 0.530167 -22.209944 -16.045202 139.999985
[Rope4_Seg05]
5 139.999802 -0.000060 -0.000119 -4.272996 -17.130400 -11.579487 139.999802
6 139.999802 -0.000060 -0.000119 -6.385173 -19.510141 -14.451780 139.999802
[Rope4_Seg06]
5 139.999924 0.000000 0.000060 -152.638992 -20.806540 -14.961301 139.999924
6 139.999924 0.000000 0.000060 -146.723145 -20.509501 -15.190452 139.999924
[Rope4_Seg07]
5 139.999802 0.000000 0.000000 -12.087848 24.423218 4.278697 139.999802
6 139.999802 0.000000 0.000000 -17.793961 25.881353 1.622805 139.999802
[Rope4_Seg08]
5 139.999924 0.000000 0.000119 -1.803834 10.578576 4.604780 139.999924
6 139.999924 0.000000 0.000119 -1.735349 11.188273 4.912603 139.999924
[Rope4_Seg09]
5 90.185791 0.000060 0.000060 -140.662933 2.230833 0.851753 90.185791
6 90.185791 0.000060 0.000060 -142.245544 2.226493 0.852023 90.185791
[L_rear_hand01]
5 101.696655 -8.392275 -7.654577 -38.132092 -7.472955 167.573868 102.329041
6 101.696655 -8.392275 -7.654577 -38.600975 -3.653869 172.414749 102.329041
[L_rear_hand02]
5 102.726799 -1.568258 5.773216 84.201385 11.185111 175.009262 102.900848
6 102.726799 -1.568258 5.773216 84.293938 5.067990 175.629288 102.900848
[L_rear_hand03]
5 104.552910 9.721220 -10.420293 -157.170425 -9.596276 -168.991470 105.519653
6 104.552910 9.721220 -10.420293 -156.337662 -7.166387 -174.701874 105.519653
